<svg width="21" height="21" viewBox="0 0 21 21" fill="none" xmlns="http://www.w3.org/2000/svg">
<g clip-path="url(#clip0_45_1684)">
<path d="M17.3906 10.5C18.2967 10.5 19.0312 9.76547 19.0312 8.85938C19.0312 7.95328 18.2967 7.21875 17.3906 7.21875C16.4845 7.21875 15.75 7.95328 15.75 8.85938C15.75 9.76547 16.4845 10.5 17.3906 10.5Z" stroke="black" stroke-width="1.5" stroke-linecap="round" stroke-linejoin="round"/>
<path d="M3.60938 10.5C4.51547 10.5 5.25 9.76547 5.25 8.85938C5.25 7.95328 4.51547 7.21875 3.60938 7.21875C2.70328 7.21875 1.96875 7.95328 1.96875 8.85938C1.96875 9.76547 2.70328 10.5 3.60938 10.5Z" stroke="black" stroke-width="1.5" stroke-linecap="round" stroke-linejoin="round"/>
<path d="M7.54688 6.5625C8.45297 6.5625 9.1875 5.82797 9.1875 4.92188C9.1875 4.01578 8.45297 3.28125 7.54688 3.28125C6.64078 3.28125 5.90625 4.01578 5.90625 4.92188C5.90625 5.82797 6.64078 6.5625 7.54688 6.5625Z" stroke="black" stroke-width="1.5" stroke-linecap="round" stroke-linejoin="round"/>
<path d="M13.4531 6.5625C14.3592 6.5625 15.0938 5.82797 15.0938 4.92188C15.0938 4.01578 14.3592 3.28125 13.4531 3.28125C12.547 3.28125 11.8125 4.01578 11.8125 4.92188C11.8125 5.82797 12.547 6.5625 13.4531 6.5625Z" stroke="black" stroke-width="1.5" stroke-linecap="round" stroke-linejoin="round"/>
<path d="M10.5 8.53125C9.86004 8.53149 9.23749 8.7396 8.72604 9.12425C8.21459 9.50891 7.84194 10.0493 7.66418 10.6641C7.40151 11.5683 6.79202 12.332 5.96859 12.7887C5.37082 13.1074 4.91941 13.6449 4.70876 14.2887C4.4981 14.9326 4.54451 15.6329 4.83828 16.2433C5.13205 16.8537 5.65043 17.327 6.28502 17.564C6.91962 17.8011 7.62129 17.7836 8.24332 17.5153C9.68883 16.9226 11.3095 16.9226 12.755 17.5153C13.3771 17.7836 14.0787 17.8011 14.7133 17.564C15.3479 17.327 15.8663 16.8537 16.1601 16.2433C16.4538 15.6329 16.5002 14.9326 16.2896 14.2887C16.0789 13.6449 15.6275 13.1074 15.0298 12.7887C14.2068 12.3319 13.5979 11.5681 13.3358 10.6641C13.1581 10.0493 12.7854 9.50891 12.274 9.12425C11.7625 8.7396 11.1399 8.53149 10.5 8.53125Z" stroke="black" stroke-width="1.5" stroke-linecap="round" stroke-linejoin="round"/>
</g>
<defs>
<clipPath id="clip0_45_1684">
<rect width="21" height="21" fill="white"/>
</clipPath>
</defs>
</svg>
