<svg width="18" height="19" viewBox="0 0 18 19" fill="none" xmlns="http://www.w3.org/2000/svg">
<g clip-path="url(#clip0_45_1691)">
<path d="M5.85703 16.0312C4.78046 15.5098 3.8683 14.6732 3.2289 13.6207C2.58951 12.5682 2.24976 11.3441 2.25 10.0938V6.53125H14.625V10.0938C14.6252 11.3441 14.2855 12.5682 13.6461 13.6207C13.0067 14.6732 12.0945 15.5098 11.018 16.0312" stroke="black" stroke-width="1.5" stroke-linecap="round" stroke-linejoin="round"/>
<path d="M6.1875 1.78125V4.15625" stroke="black" stroke-width="1.5" stroke-linecap="round" stroke-linejoin="round"/>
<path d="M8.4375 1.78125V4.15625" stroke="black" stroke-width="1.5" stroke-linecap="round" stroke-linejoin="round"/>
<path d="M10.6875 1.78125V4.15625" stroke="black" stroke-width="1.5" stroke-linecap="round" stroke-linejoin="round"/>
<path d="M2.25 16.0312H14.625" stroke="black" stroke-width="1.5" stroke-linecap="round" stroke-linejoin="round"/>
<path d="M14.6249 6.53125C15.2216 6.53125 15.7939 6.78147 16.2159 7.22687C16.6378 7.67227 16.8749 8.27636 16.8749 8.90625V9.5C16.8749 10.1299 16.6378 10.734 16.2159 11.1794C15.7939 11.6248 15.2216 11.875 14.6249 11.875H14.3872" stroke="black" stroke-width="1.5" stroke-linecap="round" stroke-linejoin="round"/>
</g>
<defs>
<clipPath id="clip0_45_1691">
<rect width="18" height="19" fill="white"/>
</clipPath>
</defs>
</svg>
