<svg width="32" height="32" viewBox="0 0 32 32" fill="none" xmlns="http://www.w3.org/2000/svg">
<g clip-path="url(#clip0_257_2)">
<path d="M26 5H6C5.44772 5 5 5.44772 5 6V26C5 26.5523 5.44772 27 6 27H26C26.5523 27 27 26.5523 27 26V6C27 5.44772 26.5523 5 26 5Z" stroke="white" stroke-width="1.5" stroke-linecap="round" stroke-linejoin="round"/>
<path d="M22 3V7" stroke="white" stroke-width="1.5" stroke-linecap="round" stroke-linejoin="round"/>
<path d="M10 3V7" stroke="white" stroke-width="1.5" stroke-linecap="round" stroke-linejoin="round"/>
<path d="M5 11H27" stroke="white" stroke-width="1.5" stroke-linecap="round" stroke-linejoin="round"/>
<path d="M11 16L13 15V23" stroke="white" stroke-width="1.5" stroke-linecap="round" stroke-linejoin="round"/>
<path d="M17.2675 15.9999C17.4043 15.7643 17.5879 15.5591 17.8069 15.397C18.0259 15.2349 18.2757 15.1192 18.541 15.0571C18.8063 14.9949 19.0815 14.9877 19.3497 15.0358C19.6179 15.0838 19.8735 15.1862 20.1007 15.3365C20.328 15.4869 20.5221 15.6821 20.6711 15.9102C20.8202 16.1383 20.9211 16.3945 20.9676 16.663C21.0141 16.9314 21.0053 17.2066 20.9416 17.4715C20.878 17.7365 20.7609 17.9856 20.5975 18.2037L17 22.9999H21" stroke="white" stroke-width="1.5" stroke-linecap="round" stroke-linejoin="round"/>
</g>
<defs>
<clipPath id="clip0_257_2">
<rect width="32" height="32" fill="white"/>
</clipPath>
</defs>
</svg>
