<svg width="19" height="19" viewBox="0 0 19 19" fill="none" xmlns="http://www.w3.org/2000/svg">
<g clip-path="url(#clip0_45_1804)">
<path d="M7.71875 7.71875C8.70251 7.71875 9.5 6.92126 9.5 5.9375C9.5 4.95374 8.70251 4.15625 7.71875 4.15625C6.73499 4.15625 5.9375 4.95374 5.9375 5.9375C5.9375 6.92126 6.73499 7.71875 7.71875 7.71875Z" stroke="black" stroke-linecap="round" stroke-linejoin="round"/>
<path d="M12.4688 14.8438C13.4525 14.8438 14.25 14.0463 14.25 13.0625C14.25 12.0787 13.4525 11.2812 12.4688 11.2812C11.485 11.2812 10.6875 12.0787 10.6875 13.0625C10.6875 14.0463 11.485 14.8438 12.4688 14.8438Z" stroke="black" stroke-linecap="round" stroke-linejoin="round"/>
<path d="M9.5 5.9375H16.0312" stroke="black" stroke-linecap="round" stroke-linejoin="round"/>
<path d="M2.96875 5.9375H5.9375" stroke="black" stroke-linecap="round" stroke-linejoin="round"/>
<path d="M14.25 13.0625H16.0312" stroke="black" stroke-linecap="round" stroke-linejoin="round"/>
<path d="M2.96875 13.0625H10.6875" stroke="black" stroke-linecap="round" stroke-linejoin="round"/>
</g>
<defs>
<clipPath id="clip0_45_1804">
<rect width="19" height="19" fill="white"/>
</clipPath>
</defs>
</svg>
