<svg width="21" height="21" viewBox="0 0 21 21" fill="none" xmlns="http://www.w3.org/2000/svg">
<g clip-path="url(#clip0_51_178)">
<path d="M10.5 13.7812C12.3122 13.7812 13.7812 12.3122 13.7812 10.5C13.7812 8.68782 12.3122 7.21875 10.5 7.21875C8.68782 7.21875 7.21875 8.68782 7.21875 10.5C7.21875 12.3122 8.68782 13.7812 10.5 13.7812Z" stroke="black" stroke-linecap="round" stroke-linejoin="round"/>
<path d="M3.39832 14.6087C3.03572 13.9842 2.75793 13.3141 2.57227 12.6162L3.94875 10.8935C3.93316 10.6302 3.93316 10.3661 3.94875 10.1027L2.57309 8.38008C2.75843 7.68206 3.03566 7.01174 3.3975 6.38672L5.58855 6.14062C5.76352 5.9435 5.95006 5.75696 6.14719 5.58199L6.39328 3.39176C7.01741 3.03164 7.68662 2.75606 8.38336 2.57227L10.106 3.94875C10.3694 3.93316 10.6334 3.93316 10.8968 3.94875L12.6195 2.57309C13.3175 2.75843 13.9878 3.03566 14.6128 3.3975L14.8589 5.58855C15.056 5.76352 15.2426 5.95006 15.4175 6.14719L17.6078 6.39328C17.9704 7.01784 18.2482 7.68791 18.4338 8.38582L17.0573 10.1085C17.0729 10.3718 17.0729 10.6359 17.0573 10.8993L18.433 12.6219C18.249 13.3197 17.9731 13.99 17.6127 14.6153L15.4216 14.8614C15.2467 15.0585 15.0601 15.245 14.863 15.42L14.6169 17.6102C13.9924 17.9728 13.3223 18.2506 12.6244 18.4363L10.9017 17.0598C10.6384 17.0754 10.3743 17.0754 10.1109 17.0598L8.38828 18.4355C7.69046 18.2514 7.02016 17.9756 6.39492 17.6152L6.14883 15.4241C5.9517 15.2491 5.76516 15.0626 5.5902 14.8655L3.39832 14.6087Z" stroke="black" stroke-linecap="round" stroke-linejoin="round"/>
</g>
<defs>
<clipPath id="clip0_51_178">
<rect width="21" height="21" fill="white"/>
</clipPath>
</defs>
</svg>
