<svg width="25" height="25" viewBox="0 0 25 25" fill="none" xmlns="http://www.w3.org/2000/svg">
<g clip-path="url(#clip0_45_1613)">
<path d="M18.75 11.7188C19.6598 11.7181 20.5571 11.9296 21.3709 12.3364C22.1846 12.7433 22.8922 13.3343 23.4375 14.0625" stroke="black" stroke-width="2" stroke-linecap="round" stroke-linejoin="round"/>
<path d="M1.5625 14.0625C2.10781 13.3343 2.81543 12.7433 3.62914 12.3364C4.44286 11.9296 5.34024 11.7181 6.25 11.7188" stroke="black" stroke-width="2" stroke-linecap="round" stroke-linejoin="round"/>
<path d="M12.5 17.9688C14.6574 17.9688 16.4062 16.2199 16.4062 14.0625C16.4062 11.9051 14.6574 10.1562 12.5 10.1562C10.3426 10.1562 8.59375 11.9051 8.59375 14.0625C8.59375 16.2199 10.3426 17.9688 12.5 17.9688Z" stroke="black" stroke-width="2" stroke-linecap="round" stroke-linejoin="round"/>
<path d="M7.03125 21.0938C7.59208 20.142 8.39156 19.3532 9.35068 18.8051C10.3098 18.257 11.3953 17.9688 12.5 17.9688C13.6047 17.9688 14.6902 18.257 15.6493 18.8051C16.6084 19.3532 17.4079 20.142 17.9688 21.0938" stroke="black" stroke-width="2" stroke-linecap="round" stroke-linejoin="round"/>
<path d="M15.7227 7.8125C15.8688 7.24664 16.1706 6.7331 16.5939 6.33018C17.0172 5.92726 17.5451 5.65112 18.1174 5.53312C18.6898 5.41511 19.2838 5.45998 19.832 5.66261C20.3801 5.86525 20.8605 6.21754 21.2185 6.67946C21.5765 7.14139 21.7978 7.69445 21.8572 8.27583C21.9167 8.85722 21.8119 9.44362 21.5548 9.96845C21.2977 10.4933 20.8986 10.9355 20.4028 11.2449C19.907 11.5543 19.3344 11.7185 18.75 11.7188" stroke="black" stroke-width="2" stroke-linecap="round" stroke-linejoin="round"/>
<path d="M6.24989 11.7188C5.66548 11.7185 5.09286 11.5543 4.59706 11.2449C4.10126 10.9355 3.70216 10.4933 3.44508 9.96845C3.18799 9.44362 3.08323 8.85722 3.14268 8.27583C3.20213 7.69445 3.42342 7.14139 3.78142 6.67946C4.13941 6.21754 4.61977 5.86525 5.16793 5.66261C5.71608 5.45998 6.31008 5.41511 6.88246 5.53312C7.45483 5.65112 7.98265 5.92726 8.40597 6.33018C8.82928 6.7331 9.13113 7.24664 9.27723 7.8125" stroke="black" stroke-width="2" stroke-linecap="round" stroke-linejoin="round"/>
</g>
<defs>
<clipPath id="clip0_45_1613">
<rect width="25" height="25" fill="white"/>
</clipPath>
</defs>
</svg>
