<svg width="32" height="32" viewBox="0 0 32 32" fill="none" xmlns="http://www.w3.org/2000/svg">
<g clip-path="url(#clip0_273_27)">
<path d="M29 15.9996V25.9996C29 27.3257 28.4732 28.5974 27.5355 29.5351C26.5979 30.4728 25.3261 30.9996 24 30.9996H17C16.7348 30.9996 16.4804 30.8942 16.2929 30.7067C16.1054 30.5192 16 30.2648 16 29.9996C16 29.7344 16.1054 29.48 16.2929 29.2925C16.4804 29.1049 16.7348 28.9996 17 28.9996H24C24.7956 28.9996 25.5587 28.6835 26.1213 28.1209C26.6839 27.5583 27 26.7952 27 25.9996H24C23.2044 25.9996 22.4413 25.6835 21.8787 25.1209C21.3161 24.5583 21 23.7952 21 22.9996V17.9996C21 17.2039 21.3161 16.4409 21.8787 15.8783C22.4413 15.3157 23.2044 14.9996 24 14.9996H26.9562C26.767 12.9208 25.9902 10.9387 24.7165 9.28489C23.4428 7.6311 21.7248 6.37385 19.7633 5.66C17.8017 4.94615 15.6775 4.80518 13.6388 5.25355C11.6001 5.70191 9.73107 6.72111 8.25 8.19209C6.40832 10.0095 5.2724 12.4222 5.045 14.9996H8C8.79565 14.9996 9.55871 15.3157 10.1213 15.8783C10.6839 16.4409 11 17.2039 11 17.9996V22.9996C11 23.7952 10.6839 24.5583 10.1213 25.1209C9.55871 25.6835 8.79565 25.9996 8 25.9996H6C5.20435 25.9996 4.44129 25.6835 3.87868 25.1209C3.31607 24.5583 3 23.7952 3 22.9996V15.9996C3.0028 13.4245 3.76953 10.9081 5.20313 8.76887C6.63673 6.62969 8.67275 4.96392 11.0535 3.9824C13.4342 3.00088 16.0526 2.74773 18.5773 3.255C21.102 3.76227 23.4194 5.00716 25.2362 6.83209C26.4358 8.03747 27.3857 9.4677 28.0316 11.0408C28.6774 12.614 29.0065 14.2991 29 15.9996Z" fill="white"/>
</g>
<defs>
<clipPath id="clip0_273_27">
<rect width="32" height="32" fill="white"/>
</clipPath>
</defs>
</svg>
