<svg width="119" height="17" viewBox="0 0 119 17" fill="none" xmlns="http://www.w3.org/2000/svg">
<path d="M0.376953 16V0.599609H9.07812V7.58203H10.3574V0.599609H19.0781V16H10.3379V8.86133H9.05859V16H0.376953ZM29.3703 16.0781V4.58398H29.5949C30.5194 4.58398 31.3625 4.72396 32.1242 5.00391C32.9055 5.29036 33.5663 5.6875 34.1066 6.19531C34.6665 6.71615 35.1027 7.33138 35.4152 8.04102C35.7212 8.76367 35.8742 9.53516 35.8742 10.3555C35.8742 11.4427 35.6073 12.4193 35.0734 13.2852C34.5396 14.151 33.7974 14.8346 32.8469 15.3359C31.9029 15.8307 30.8384 16.0781 29.6535 16.0781H29.3703ZM28.0324 4.58398V16.0781H27.7199C26.5806 16.0781 25.5389 15.8275 24.5949 15.3262C23.6639 14.8314 22.9283 14.1413 22.3879 13.2559C21.8475 12.3704 21.5773 11.3971 21.5773 10.3359C21.5773 9.54167 21.7303 8.78971 22.0363 8.08008C22.3358 7.38997 22.7687 6.77474 23.3352 6.23438C23.9016 5.70052 24.5493 5.29362 25.2785 5.01367C26.0207 4.72721 26.8117 4.58398 27.6516 4.58398H28.0324ZM38.4223 16V0.697266H44.6039V16H38.4223ZM50.6188 0.501953C51.6148 0.501953 52.4091 0.658203 53.0016 0.970703C53.6005 1.2832 53.9 1.69987 53.9 2.2207C53.9 2.52669 53.7665 2.80339 53.4996 3.05078C53.2327 3.29818 52.8648 3.49023 52.3961 3.62695C51.9404 3.77018 51.4098 3.8418 50.8043 3.8418C49.8733 3.8418 49.1311 3.69206 48.5777 3.39258C48.0178 3.08659 47.7379 2.67643 47.7379 2.16211C47.7379 1.67383 48.0016 1.27344 48.5289 0.960938C49.0628 0.654948 49.7594 0.501953 50.6188 0.501953ZM47.777 16V4.70117H53.9586V16H47.777ZM62.9324 4.64258V15.9805H62.5516C61.9982 15.9805 61.5717 15.9577 61.2723 15.9121C60.9533 15.873 60.5887 15.7754 60.1785 15.6191C59.4233 15.3522 58.782 14.9648 58.2547 14.457C57.7013 13.9297 57.2814 13.3145 56.9949 12.6113C56.702 11.9147 56.5555 11.1628 56.5555 10.3555C56.5555 9.22917 56.8745 8.18099 57.5125 7.21094C58.1505 6.25391 58.9839 5.5638 60.0125 5.14062C60.657 4.86068 61.3927 4.70117 62.2195 4.66211C62.2521 4.6556 62.2977 4.65234 62.3563 4.65234C62.4148 4.64583 62.4637 4.64258 62.5027 4.64258H62.9324ZM64.2313 16V0.697266H70.4129V16H64.2313ZM78.8203 9.01758V16H76.7402C76.1934 16 75.6855 15.9089 75.2168 15.7266C74.7285 15.5443 74.3216 15.2969 73.9961 14.9844C73.6641 14.6849 73.4036 14.3138 73.2148 13.8711C73.0326 13.4609 72.9414 12.9922 72.9414 12.4648C72.9414 11.6055 73.2018 10.8568 73.7227 10.2188C73.957 9.89974 74.2891 9.59375 74.7188 9.30078C75.0703 9.55469 75.3926 9.73047 75.6855 9.82812C75.972 9.93229 76.2975 9.98438 76.6621 9.98438C77.0853 9.98438 77.4661 9.90951 77.8047 9.75977C78.1302 9.61654 78.4688 9.36914 78.8203 9.01758ZM80.1387 16V4.62305H81.3594C82.4792 4.62305 83.4102 4.79883 84.1523 5.15039C84.901 5.50195 85.4544 6.03906 85.8125 6.76172C86.1771 7.49089 86.3594 8.40234 86.3594 9.49609V16H80.1387ZM76.584 4.64258C76.9941 4.64258 77.3783 4.74349 77.7363 4.94531C78.0879 5.14714 78.3678 5.42383 78.5762 5.77539C78.778 6.12044 78.8789 6.50781 78.8789 6.9375C78.8789 7.3737 78.778 7.76107 78.5762 8.09961C78.3743 8.44466 78.0944 8.72135 77.7363 8.92969C77.3717 9.13802 76.9876 9.24219 76.584 9.24219C76.1868 9.24219 75.806 9.13802 75.4414 8.92969C75.0898 8.72786 74.8099 8.44466 74.6016 8.08008C74.3997 7.73503 74.2988 7.35417 74.2988 6.9375C74.2988 6.53385 74.3997 6.15299 74.6016 5.79492C74.8099 5.43034 75.0898 5.15039 75.4414 4.95508C75.806 4.74674 76.1868 4.64258 76.584 4.64258ZM97.3449 16.0391L102.638 6.95703V16.0391H97.3449ZM88.7609 16.0391L95.4016 4.68164H102.501L95.841 16.0391H88.7609ZM89.2199 12.6992V4.68164H93.9172L89.2199 12.6992ZM117.705 11.7617L118.301 12.0352C118.119 12.5495 117.95 12.9499 117.793 13.2363C117.631 13.5358 117.416 13.8288 117.149 14.1152C116.602 14.7402 115.987 15.1895 115.303 15.4629C114.34 15.873 113.187 16.0781 111.846 16.0781C111.071 16.0781 110.368 16.013 109.737 15.8828C109.099 15.7526 108.539 15.5605 108.057 15.3066C107.556 15.0527 107.107 14.7174 106.709 14.3008C106.189 13.7604 105.791 13.1484 105.518 12.4648C105.245 11.7878 105.108 11.0586 105.108 10.2773C105.108 9.48307 105.258 8.73438 105.557 8.03125C105.857 7.32812 106.28 6.70964 106.827 6.17578C107.367 5.64844 107.992 5.23828 108.702 4.94531C109.424 4.65885 110.186 4.51562 110.987 4.51562H111.221V15.3848C111.729 15.4238 112.09 15.4434 112.305 15.4434C113.946 15.4434 115.258 14.9746 116.241 14.0371C116.573 13.7246 116.833 13.4219 117.022 13.1289C117.224 12.8099 117.452 12.3542 117.705 11.7617ZM118.584 10.2188H112.53V4.49609C113.083 4.53516 113.558 4.59049 113.955 4.66211C114.314 4.72721 114.662 4.84115 115 5.00391C115.717 5.28385 116.364 5.7168 116.944 6.30273C117.334 6.69336 117.67 7.14909 117.95 7.66992C118.243 8.2168 118.422 8.71484 118.487 9.16406C118.532 9.44401 118.565 9.79557 118.584 10.2188Z" fill="white"/>
</svg>
