<svg width="19" height="19" viewBox="0 0 19 19" fill="none" xmlns="http://www.w3.org/2000/svg">
<g clip-path="url(#clip0_45_1606)">
<path d="M9.5 10.0938C10.8117 10.0938 11.875 9.03043 11.875 7.71875C11.875 6.40707 10.8117 5.34375 9.5 5.34375C8.18832 5.34375 7.125 6.40707 7.125 7.71875C7.125 9.03043 8.18832 10.0938 9.5 10.0938Z" stroke="black" stroke-width="2" stroke-linecap="round" stroke-linejoin="round"/>
<path d="M15.4375 7.71875C15.4375 13.0625 9.5 17.2188 9.5 17.2188C9.5 17.2188 3.5625 13.0625 3.5625 7.71875C3.5625 6.14403 4.18806 4.6338 5.30155 3.5203C6.41505 2.40681 7.92528 1.78125 9.5 1.78125C11.0747 1.78125 12.5849 2.40681 13.6984 3.5203C14.8119 4.6338 15.4375 6.14403 15.4375 7.71875Z" stroke="black" stroke-width="2" stroke-linecap="round" stroke-linejoin="round"/>
</g>
<defs>
<clipPath id="clip0_45_1606">
<rect width="19" height="19" fill="white"/>
</clipPath>
</defs>
</svg>
