<svg width="19" height="18" viewBox="0 0 19 18" fill="none" xmlns="http://www.w3.org/2000/svg">
<path d="M18.9025 17.64C18.8384 17.7495 18.7461 17.8404 18.635 17.9036C18.5239 17.9668 18.3978 18 18.2695 18H0.73006C0.60184 17.9999 0.475911 17.9665 0.364918 17.9033C0.253925 17.84 0.161776 17.7491 0.0977226 17.6397C0.0336693 17.5303 -3.28939e-05 17.4062 2.40909e-08 17.2799C3.29421e-05 17.1536 0.0337998 17.0295 0.09791 16.9201C1.48919 14.5508 3.6332 12.8518 6.13531 12.0464C4.89765 11.3206 3.93607 10.2147 3.39823 8.89845C2.86039 7.58222 2.77604 6.12846 3.15812 4.76042C3.5402 3.39239 4.36759 2.18573 5.51323 1.32574C6.65887 0.465755 8.05941 0 9.49977 0C10.9401 0 12.3407 0.465755 13.4863 1.32574C14.632 2.18573 15.4593 3.39239 15.8414 4.76042C16.2235 6.12846 16.1391 7.58222 15.6013 8.89845C15.0635 10.2147 14.1019 11.3206 12.8642 12.0464C15.3663 12.8518 17.5104 14.5508 18.9016 16.9201C18.9659 17.0295 18.9998 17.1536 19 17.28C19.0002 17.4063 18.9665 17.5305 18.9025 17.64Z" fill="white"/>
</svg>
