<svg width="18" height="18" viewBox="0 0 18 18" fill="none" xmlns="http://www.w3.org/2000/svg">
<path d="M12.8077 8.30769C12.8077 9.06078 12.5844 9.79696 12.166 10.4231C11.7476 11.0493 11.1529 11.5373 10.4571 11.8255C9.76138 12.1137 8.99578 12.1891 8.25716 12.0422C7.51854 11.8953 6.84007 11.5327 6.30756 11.0001C5.77504 10.4676 5.4124 9.78915 5.26547 9.05053C5.11855 8.31191 5.19396 7.54631 5.48215 6.85055C5.77035 6.15479 6.25839 5.56011 6.88456 5.14171C7.51073 4.72332 8.24691 4.5 9 4.5C10.0095 4.50114 10.9773 4.90268 11.6912 5.61651C12.405 6.33034 12.8065 7.29818 12.8077 8.30769ZM18 9C18 10.78 17.4722 12.5201 16.4832 14.0001C15.4943 15.4802 14.0887 16.6337 12.4442 17.3149C10.7996 17.9961 8.99002 18.1743 7.24419 17.8271C5.49836 17.4798 3.89471 16.6226 2.63604 15.364C1.37737 14.1053 0.520203 12.5016 0.172937 10.7558C-0.17433 9.00998 0.00389956 7.20038 0.685088 5.55585C1.36628 3.91131 2.51983 2.50571 3.99987 1.51677C5.47991 0.527841 7.21997 0 9 0C11.3862 0.00251984 13.6739 0.95154 15.3612 2.63882C17.0485 4.3261 17.9975 6.61382 18 9ZM16.6154 9C16.6143 7.97498 16.4065 6.96071 16.0044 6.01785C15.6023 5.07499 15.0142 4.2229 14.2752 3.51254C13.5363 2.80218 12.6616 2.24814 11.7036 1.88356C10.7457 1.51898 9.72398 1.35134 8.69971 1.39067C4.62375 1.54817 1.37337 4.94308 1.38462 9.02163C1.38853 10.8783 2.07331 12.6691 3.30923 14.0547C3.81256 13.3247 4.45192 12.6985 5.19231 12.2106C5.25544 12.1689 5.33048 12.149 5.40597 12.154C5.48145 12.159 5.55322 12.1886 5.61029 12.2383C6.55112 13.052 7.75347 13.4999 8.99741 13.4999C10.2413 13.4999 11.4437 13.052 12.3845 12.2383C12.4416 12.1886 12.5134 12.159 12.5888 12.154C12.6643 12.149 12.7394 12.1689 12.8025 12.2106C13.5438 12.6983 14.1841 13.3244 14.6882 14.0547C15.9302 12.6641 16.6163 10.8645 16.6154 9Z" fill="white"/>
</svg>
