<svg width="23" height="23" viewBox="0 0 23 23" fill="none" xmlns="http://www.w3.org/2000/svg">
<g clip-path="url(#clip0_45_1678)">
<path d="M11.5 19.2266C11.9962 19.2266 12.3984 18.8243 12.3984 18.3281C12.3984 17.8319 11.9962 17.4297 11.5 17.4297C11.0038 17.4297 10.6016 17.8319 10.6016 18.3281C10.6016 18.8243 11.0038 19.2266 11.5 19.2266Z" fill="black"/>
<path d="M20.8438 8.37233C18.2092 6.21162 14.9073 5.03076 11.5 5.03076C8.09274 5.03076 4.79079 6.21162 2.15625 8.37233" stroke="black" stroke-width="1.5" stroke-linecap="round" stroke-linejoin="round"/>
<path d="M17.9688 11.5899C16.1276 10.1324 13.8482 9.33936 11.5 9.33936C9.15178 9.33936 6.87238 10.1324 5.03125 11.5899" stroke="black" stroke-width="1.5" stroke-linecap="round" stroke-linejoin="round"/>
<path d="M15.0938 14.8241C14.0495 14.0645 12.7913 13.6553 11.5 13.6553C10.2087 13.6553 8.95054 14.0645 7.90625 14.8241" stroke="black" stroke-width="1.5" stroke-linecap="round" stroke-linejoin="round"/>
</g>
<defs>
<clipPath id="clip0_45_1678">
<rect width="23" height="23" fill="white"/>
</clipPath>
</defs>
</svg>
